<?xml version="1.0" encoding="utf-8"?>
<!-- Generator: Adobe Illustrator 17.0.0, SVG Export Plug-In . SVG Version: 6.00 Build 0)  -->
<!DOCTYPE svg PUBLIC "-//W3C//DTD SVG 1.1//EN" "http://www.w3.org/Graphics/SVG/1.1/DTD/svg11.dtd">
<svg version="1.1" id="Layer_1" xmlns="http://www.w3.org/2000/svg" xmlns:xlink="http://www.w3.org/1999/xlink" x="0px" y="0px"
	 width="48px" height="48px" viewBox="0 0 48 48" enable-background="new 0 0 48 48" xml:space="preserve">
<ellipse opacity="0.1" enable-background="new    " cx="23.5" cy="44.7" rx="10.4" ry="3.3"/>
<g>
	<g>
		<path fill="#041e42" d="M37.758,14.257C37.756,6.382,31.373,0,23.502,0c-7.876,0-14.26,6.382-14.26,14.257
			c0,6.796,10.621,24.953,13.531,29.796c0.152,0.258,0.43,0.414,0.728,0.414c0.299,0,0.577-0.156,0.727-0.413
			C27.137,39.21,37.758,21.053,37.758,14.257z M23.501,19.883c-3.103,0-5.628-2.524-5.628-5.628c0-3.103,2.524-5.628,5.628-5.628
			s5.626,2.525,5.626,5.628C29.127,17.358,26.604,19.883,23.501,19.883z"/>
	</g>
</g>
</svg>
